REM DIRINDEX 1\2,1\3,1\4
REM DIRNAME cjc038,folder01,folder02,folder03
TITLE ""
FILE "DISC1Track26.mp3" MP3
  TRACK 01 AUDIO
    TITLE "0:"
    INDEX 01 00:00:00
  TRACK 02 AUDIO
    TITLE "4:cjc038_0912"
    INDEX 01 00:00:07
  TRACK 03 AUDIO
    TITLE "0:"
    INDEX 01 00:02:57
  TRACK 04 AUDIO
    TITLE "2:cjc038_0913"
    INDEX 01 00:04:19
  TRACK 05 AUDIO
    TITLE "0:"
    INDEX 01 00:06:22
  TRACK 06 AUDIO
    TITLE "3:cjc038_0914"
    INDEX 01 00:06:33
  TRACK 07 AUDIO
    TITLE "0:"
    INDEX 01 00:08:19
  TRACK 08 AUDIO
    TITLE "2:cjc038_0915"
    INDEX 01 00:09:02
  TRACK 09 AUDIO
    TITLE "0:"
    INDEX 01 00:10:61
  TRACK 10 AUDIO
    TITLE "3:cjc038_0916"
    INDEX 01 00:10:70
  TRACK 11 AUDIO
    TITLE "0:"
    INDEX 01 00:12:46
  TRACK 12 AUDIO
    TITLE "2:cjc038_0917"
    INDEX 01 00:14:23
  TRACK 13 AUDIO
    TITLE "0:"
    INDEX 01 00:16:49
  TRACK 14 AUDIO
    TITLE "2:cjc038_0918"
    INDEX 01 00:16:71
  TRACK 15 AUDIO
    TITLE "0:"
    INDEX 01 00:18:64
  TRACK 16 AUDIO
    TITLE "3:cjc038_0919"
    INDEX 01 00:19:01
  TRACK 17 AUDIO
    TITLE "0:"
    INDEX 01 00:21:15
  TRACK 18 AUDIO
    TITLE "3:cjc038_0920"
    INDEX 01 00:21:45
  TRACK 19 AUDIO
    TITLE "0:"
    INDEX 01 00:23:30
  TRACK 20 AUDIO
    TITLE "2:cjc038_0921"
    INDEX 01 00:24:06
  TRACK 21 AUDIO
    TITLE "0:"
    INDEX 01 00:26:11
  TRACK 22 AUDIO
    TITLE "2:cjc038_0922"
    INDEX 01 00:26:13
  TRACK 23 AUDIO
    TITLE "0:"
    INDEX 01 00:27:30
  TRACK 24 AUDIO
    TITLE "3:cjc038_0923"
    INDEX 01 00:27:39
  TRACK 25 AUDIO
    TITLE "0:"
    INDEX 01 00:29:40
  TRACK 26 AUDIO
    TITLE "3:cjc038_0924"
    INDEX 01 00:29:46
  TRACK 27 AUDIO
    TITLE "0:"
    INDEX 01 00:30:54
  TRACK 28 AUDIO
    TITLE "2:cjc038_0925"
    INDEX 01 00:32:35
  TRACK 29 AUDIO
    TITLE "0:"
    INDEX 01 00:35:27
  TRACK 30 AUDIO
    TITLE "2:cjc038_0926"
    INDEX 01 00:35:31
  TRACK 31 AUDIO
    TITLE "0:"
    INDEX 01 00:37:22
  TRACK 32 AUDIO
    TITLE "3:cjc038_0927"
    INDEX 01 00:37:32
  TRACK 33 AUDIO
    TITLE "0:"
    INDEX 01 00:40:24
  TRACK 34 AUDIO
    TITLE "3:cjc038_0928"
    INDEX 01 00:40:30
  TRACK 35 AUDIO
    TITLE "0:"
    INDEX 01 00:42:10
  TRACK 36 AUDIO
    TITLE "2:cjc038_0929"
    INDEX 01 00:42:65
  TRACK 37 AUDIO
    TITLE "0:"
    INDEX 01 00:44:69
  TRACK 38 AUDIO
    TITLE "2:cjc038_0930"
    INDEX 01 00:45:00
  TRACK 39 AUDIO
    TITLE "0:"
    INDEX 01 00:46:25
  TRACK 40 AUDIO
    TITLE "3:cjc038_0931"
    INDEX 01 00:46:33
  TRACK 41 AUDIO
    TITLE "0:"
    INDEX 01 00:48:38
  TRACK 42 AUDIO
    TITLE "3:cjc038_0932"
    INDEX 01 00:48:40
  TRACK 43 AUDIO
    TITLE "0:"
    INDEX 01 00:49:61
  TRACK 44 AUDIO
    TITLE "2:cjc038_0933"
    INDEX 01 00:50:42
  TRACK 45 AUDIO
    TITLE "0:"
    INDEX 01 00:52:47
  TRACK 46 AUDIO
    TITLE "2:cjc038_0934"
    INDEX 01 00:52:53
  TRACK 47 AUDIO
    TITLE "0:"
    INDEX 01 00:53:70
  TRACK 48 AUDIO
    TITLE "3:cjc038_0935"
    INDEX 01 00:54:05
  TRACK 49 AUDIO
    TITLE "0:"
    INDEX 01 00:56:04
  TRACK 50 AUDIO
    TITLE "3:cjc038_0936"
    INDEX 01 00:56:10
  TRACK 51 AUDIO
    TITLE "0:"
    INDEX 01 00:57:25
  TRACK 52 AUDIO
    TITLE "2:cjc038_0937"
    INDEX 01 00:57:74
  TRACK 53 AUDIO
    TITLE "0:"
    INDEX 01 01:00:35
  TRACK 54 AUDIO
    TITLE "2:cjc038_0938"
    INDEX 01 01:00:37
  TRACK 55 AUDIO
    TITLE "0:"
    INDEX 01 01:01:52
  TRACK 56 AUDIO
    TITLE "3:cjc038_0939"
    INDEX 01 01:01:58
  TRACK 57 AUDIO
    TITLE "0:"
    INDEX 01 01:04:13
  TRACK 58 AUDIO
    TITLE "3:cjc038_0940"
    INDEX 01 01:04:19
  TRACK 59 AUDIO
    TITLE "0:"
    INDEX 01 01:05:28
  TRACK 60 AUDIO
    TITLE "2:cjc038_0941"
    INDEX 01 01:06:06
  TRACK 61 AUDIO
    TITLE "0:"
    INDEX 01 01:11:25
  TRACK 62 AUDIO
    TITLE "3:cjc038_0942"
    INDEX 01 01:11:33
  TRACK 63 AUDIO
    TITLE "0:"
    INDEX 01 01:16:42
